<svg width="254" height="210" viewBox="0 0 254 210" fill="none" xmlns="http://www.w3.org/2000/svg">
<path d="M245.669 160.512C250.27 160.512 254 156.782 254 152.181C254 147.579 250.27 143.849 245.669 143.849C241.068 143.849 237.338 147.579 237.338 152.181C237.338 156.782 241.068 160.512 245.669 160.512Z" fill="#F1F3F9"/>
<path d="M229.67 183.756C232.812 183.756 235.359 181.209 235.359 178.067C235.359 174.924 232.812 172.377 229.67 172.377C226.527 172.377 223.98 174.924 223.98 178.067C223.98 181.209 226.527 183.756 229.67 183.756Z" fill="#F1F3F9"/>
<path d="M45.3136 44.688C48.4559 44.688 51.0032 42.1407 51.0032 38.9984C51.0032 35.8562 48.4559 33.3088 45.3136 33.3088C42.1713 33.3088 39.624 35.8562 39.624 38.9984C39.624 42.1407 42.1713 44.688 45.3136 44.688Z" fill="#F1F3F9"/>
<path d="M10.5664 154.416C16.4021 154.416 21.1328 149.685 21.1328 143.849C21.1328 138.014 16.4021 133.283 10.5664 133.283C4.73074 133.283 0 138.014 0 143.849C0 149.685 4.73074 154.416 10.5664 154.416Z" fill="#F1F3F9"/>
<path d="M138.887 207.451C195.783 207.451 241.909 161.325 241.909 104.226C241.909 47.1264 195.783 1 138.887 1C81.9909 1 35.8646 47.1264 35.8646 104.226C35.8646 161.325 81.9909 207.451 138.887 207.451Z" fill="#F1F3F9" stroke="#D6DCE8" stroke-width="2" stroke-miterlimit="10"/>
<path d="M198.717 16.5154C201.781 16.5154 204.374 18.861 204.374 22.1448V188.213C204.374 191.262 202.017 193.842 198.717 193.842H75.9063C72.842 193.842 70.249 191.497 70.249 188.213V22.1448C70.249 19.0955 72.6062 16.5154 75.9063 16.5154H198.717Z" fill="#F1F3F9" stroke="#D6DCE8" stroke-width="2" stroke-miterlimit="10"/>
<path opacity="0.3" d="M204.374 33.8728V187.978C204.374 191.028 202.017 193.608 198.717 193.608H86.5137L76.6134 183.756L188.109 31.0581L197.774 27.5397L204.374 33.8728Z" fill="#BCC4CF"/>
<path d="M198.245 29.4161C198.245 28.4779 197.538 27.5397 196.36 27.5397H78.4992C77.5563 27.5397 76.6134 28.2434 76.6134 29.4161V181.88C76.6134 182.818 77.3206 183.756 78.4992 183.756H196.124C197.067 183.756 198.01 183.053 198.01 181.88L198.245 29.4161Z" fill="#F1F3F9" stroke="#D6DCE8" stroke-width="2" stroke-miterlimit="10"/>
<path d="M198.245 29.4159C198.245 28.4777 197.538 27.5394 196.36 27.5394H78.4994C77.5565 27.5394 76.6136 28.2431 76.6136 29.4159C78.0279 90.1668 78.4994 158.893 71.8992 176.719L184.809 175.077C191.645 144.116 196.831 88.5249 198.245 29.4159Z" fill="#F1F3F9" stroke="#D6DCE8" stroke-width="2" stroke-miterlimit="10"/>
<path d="M198.009 27.774C198.009 27.774 197.773 36.9219 194.945 95.3272C194.945 95.7963 194.945 96.0309 194.945 96.5C191.409 153.733 140.493 165.695 134.365 166.399C131.536 166.633 126.114 167.102 116.45 167.102C104.428 167.572 86.0418 167.806 57.2839 168.041C56.341 168.041 55.6338 167.102 56.1053 166.164C75.9058 126.524 76.1415 28.0086 76.1415 28.0086L198.009 27.774Z" fill="white" stroke="#D6DCE8" stroke-width="2" stroke-miterlimit="10"/>
<path d="M167.277 127.929H112.391C112.014 127.929 111.637 127.356 111.637 126.4C111.637 125.635 112.014 124.871 112.391 124.871H167.465C167.842 124.871 168.22 125.444 168.22 126.4C168.22 127.165 167.842 127.929 167.277 127.929Z" fill="#AAB2C5"/>
<path d="M138.439 137.105H112.361C111.999 137.105 111.637 136.531 111.637 135.576C111.637 134.811 111.999 134.046 112.361 134.046H138.439C138.801 134.046 139.164 134.62 139.164 135.576C139.164 136.34 138.801 137.105 138.439 137.105Z" fill="#AAB2C5"/>
<path d="M176.62 59.1124H120.058C119.67 59.1124 119.283 58.539 119.283 57.5832C119.283 56.8185 119.67 56.0539 120.058 56.0539H176.62C177.008 56.0539 177.395 56.6274 177.395 57.5832C177.395 58.539 177.008 59.1124 176.62 59.1124Z" fill="#AAB2C5"/>
<path d="M175.126 66.7585H153.667C153.297 66.7585 152.927 66.185 152.927 65.2292C152.927 64.4646 153.297 63.7 153.667 63.7H175.126C175.496 63.7 175.866 64.2734 175.866 65.2292C175.866 66.185 175.496 66.7585 175.126 66.7585Z" fill="#AAB2C5"/>
<path d="M147.574 66.7585H120.048C119.665 66.7585 119.283 66.185 119.283 65.2292C119.283 64.4646 119.665 63.7 120.048 63.7H147.574C147.957 63.7 148.339 64.2734 148.339 65.2292C148.339 66.185 147.957 66.7585 147.574 66.7585Z" fill="#AAB2C5"/>
<path d="M97.7452 68.288C97.3415 68.288 96.9378 68.0893 96.5342 67.6918L90.6811 62.1268C90.0756 61.5305 90.0756 60.338 90.6811 59.7418C91.2865 59.1455 92.4975 59.1455 93.103 59.7418L97.7452 64.313L107.231 54.9718C107.837 54.3755 109.048 54.3755 109.653 54.9718C110.259 55.568 110.259 56.7605 109.653 57.3568L98.9562 67.8905C98.5525 68.0893 98.1488 68.288 97.7452 68.288Z" fill="#AAB2C5"/>
<path d="M173.582 92.7562H118.508C118.131 92.7562 117.754 92.1827 117.754 91.2269C117.754 90.4623 118.131 89.6976 118.508 89.6976H173.582C173.959 89.6976 174.337 90.2711 174.337 91.2269C174.337 91.9915 173.959 92.7562 173.582 92.7562Z" fill="#AAB2C5"/>
<path d="M144.51 101.932H118.477C118.115 101.932 117.754 101.358 117.754 100.403C117.754 99.6381 118.115 98.8734 118.477 98.8734H144.51C144.872 98.8734 145.233 99.4469 145.233 100.403C145.414 101.167 145.053 101.932 144.51 101.932Z" fill="#AAB2C5"/>
<path d="M95.4513 101.932C95.0786 101.932 94.706 101.733 94.3334 101.335L89.1168 95.7704C88.5579 95.1742 88.5579 93.9817 89.1168 93.3855C89.6757 92.7892 90.7936 92.7892 91.3525 93.3855L95.6376 97.9567L104.394 88.6155C104.953 88.0192 106.071 88.0192 106.63 88.6155C107.189 89.2117 107.189 90.4042 106.63 91.0005L96.5691 101.335C96.3828 101.733 96.0102 101.932 95.4513 101.932Z" fill="#AAB2C5"/>
<path d="M89.3341 137.105C88.9615 137.105 88.5888 136.906 88.2162 136.508L82.9996 130.943C82.4407 130.347 82.4407 129.155 82.9996 128.558C83.5586 127.962 84.6764 127.962 85.2353 128.558L89.5204 133.13L98.2768 123.788C98.8357 123.192 99.9535 123.192 100.512 123.788C101.071 124.385 101.071 125.577 100.512 126.173L90.4519 136.508C90.2656 136.906 89.893 137.105 89.3341 137.105Z" fill="#AAB2C5"/>
<path d="M194.71 96.2655C191.41 153.498 140.258 165.461 134.129 166.164C131.301 166.399 125.879 166.868 116.215 166.868C141.672 155.14 155.344 134.03 155.109 117.61C167.366 118.549 188.581 117.61 194.71 96.2655Z" fill="#F1F3F9" stroke="#D6DCE8" stroke-width="2" stroke-miterlimit="10"/>
<path d="M231.962 177.388C231.177 180.724 230 184.257 228.626 187.201C224.897 194.462 219.01 200.153 211.748 203.882C204.29 207.611 195.459 209.181 186.627 207.219C165.824 202.901 152.479 182.49 156.796 161.687C161.114 140.884 181.328 127.343 202.132 131.857C209.589 133.427 216.066 137.155 221.561 142.258C230.785 151.482 234.71 164.827 231.962 177.388Z" fill="#D6DCE8" stroke="#AAB2C5" stroke-width="2" stroke-miterlimit="10"/>
<path d="M206.645 165.201H198.814V157.369C198.814 155.09 197.03 153.033 194.477 153.033C192.197 153.033 190.141 154.817 190.141 157.369V165.201H182.309C180.03 165.201 177.973 166.984 177.973 169.537C177.973 170.758 178.404 171.855 179.198 172.649C179.992 173.442 181.089 173.874 182.309 173.874H190.141V181.705C190.141 183.985 191.924 186.041 194.477 186.041C196.757 186.041 198.814 184.258 198.814 181.705V173.874H206.645C208.925 173.874 210.981 172.09 210.981 169.537C210.981 166.984 208.925 165.201 206.645 165.201Z" fill="white" stroke="#AAB2C5" stroke-width="2"/>
<path d="M165.244 16.9845V23.083C165.244 23.5522 165.244 23.7867 165.244 24.2558C164.537 28.2434 161.237 31.5272 156.994 31.5272H117.629C113.386 31.5272 110.086 28.2434 109.379 24.2558C109.379 23.7867 109.379 23.5522 109.379 23.083V16.9845C109.379 16.0463 110.086 14.8735 111.264 14.8735H130.593C130.593 14.4043 130.593 14.1698 130.593 13.9352C130.593 10.1823 133.894 6.89844 137.665 6.89844C141.437 6.89844 144.737 10.1823 144.737 13.9352C144.737 14.4043 144.737 14.6389 144.737 14.8735H164.066C164.537 15.108 165.244 15.8117 165.244 16.9845Z" fill="#D6DCE8" stroke="#AAB2C5" stroke-width="2" stroke-miterlimit="10"/>
<path d="M137.634 17.822C139.382 17.822 140.693 16.5112 140.693 14.7634C140.693 13.0157 139.382 11.7049 137.634 11.7049C135.886 11.7049 134.575 13.0157 134.575 14.7634C134.575 16.5112 136.105 17.822 137.634 17.822Z" fill="#AAB2C5"/>
</svg>
