<svg width="38" height="38" viewBox="0 0 38 38" fill="none" xmlns="http://www.w3.org/2000/svg">
<path d="M19 20.1878C17.1993 20.1878 15.4392 19.6539 13.942 18.6535C12.4448 17.6531 11.2779 16.2312 10.5888 14.5677C9.89976 12.9041 9.71946 11.0736 10.0708 9.30753C10.422 7.54149 11.2891 5.91929 12.5624 4.64605C13.8356 3.3728 15.4578 2.50572 17.2238 2.15443C18.9899 1.80314 20.8204 1.98344 22.484 2.67251C24.1476 3.36158 25.5694 4.52849 26.5698 6.02566C27.5702 7.52283 28.1042 9.28303 28.1042 11.0837C28.1012 13.4973 27.1411 15.8113 25.4344 17.518C23.7276 19.2248 21.4137 20.1849 19 20.1878ZM19 4.3545C17.6691 4.3545 16.3681 4.74916 15.2615 5.48857C14.1549 6.22798 13.2924 7.27893 12.783 8.50852C12.2737 9.73812 12.1405 11.0911 12.4001 12.3965C12.6598 13.7018 13.3007 14.9008 14.2417 15.8419C15.1828 16.783 16.3819 17.4239 17.6872 17.6835C18.9925 17.9432 20.3455 17.8099 21.5751 17.3006C22.8047 16.7913 23.8557 15.9288 24.5951 14.8222C25.3345 13.7156 25.7292 12.4146 25.7292 11.0837C25.7254 9.30013 25.0152 7.59073 23.7541 6.32958C22.4929 5.06843 20.7835 4.35826 19 4.3545Z" fill="#6C5DD3"/>
<path d="M5.39929 36.0209C5.08499 36.0188 4.78415 35.8931 4.5619 35.6708C4.33964 35.4486 4.21387 35.1477 4.21179 34.8334C4.21179 28.0726 10.846 22.5626 19.0001 22.5626C20.584 22.5575 22.1611 22.7706 23.6868 23.1959C23.8365 23.2375 23.9766 23.3082 24.0989 23.4039C24.2213 23.4996 24.3237 23.6185 24.4001 23.7537C24.4766 23.889 24.5257 24.038 24.5445 24.1922C24.5634 24.3464 24.5517 24.5029 24.5101 24.6526C24.4685 24.8023 24.3979 24.9423 24.3022 25.0647C24.2065 25.1871 24.0876 25.2895 23.9523 25.3659C23.817 25.4424 23.668 25.4915 23.5138 25.5103C23.3596 25.5292 23.2032 25.5175 23.0535 25.4759C21.7333 25.1122 20.3695 24.931 19.0001 24.9376C12.1601 24.9376 6.58679 29.3709 6.58679 34.8334C6.58472 35.1477 6.45894 35.4486 6.23669 35.6708C6.01444 35.8931 5.7136 36.0188 5.39929 36.0209Z" fill="#6C5DD3"/>
<path d="M28.4999 36.0212C26.6424 36.0212 24.8521 35.3265 23.4807 34.0737C22.9147 33.5861 22.4332 33.0084 22.0557 32.3637C21.2004 30.9437 20.8391 29.2806 21.0282 27.6337C21.2172 25.9869 21.9459 24.4488 23.1007 23.2596C23.8188 22.5198 24.6814 21.9358 25.6349 21.5438C26.5884 21.1518 27.6124 20.9602 28.6431 20.981C29.6738 21.0018 30.6892 21.2345 31.6261 21.6646C32.563 22.0948 33.4014 22.7131 34.089 23.4812C35.331 24.8581 36.0191 26.6461 36.0207 28.5004C36.0218 29.0995 35.9419 29.696 35.7832 30.2737C35.6144 31.02 35.3199 31.7321 34.9124 32.3796C34.2521 33.4914 33.3134 34.412 32.1889 35.0506C31.0645 35.6891 29.793 36.0237 28.4999 36.0212ZM28.4999 23.3546C27.8237 23.3531 27.1539 23.4852 26.5289 23.7433C25.9039 24.0014 25.3361 24.3804 24.858 24.8585C24.3798 25.3366 24.0009 25.9045 23.7428 26.5294C23.4847 27.1544 23.3526 27.8242 23.354 28.5004C23.3513 29.4338 23.609 30.3495 24.0982 31.1446C24.3529 31.586 24.6793 31.982 25.064 32.3162C25.9994 33.1808 27.2261 33.6613 28.4999 33.6621C29.3853 33.6606 30.2554 33.4311 31.0263 32.9957C31.7973 32.5603 32.4431 31.9337 32.9015 31.1762C33.1718 30.73 33.3696 30.2436 33.4874 29.7354C33.5944 29.3379 33.6477 28.9279 33.6457 28.5162C33.6428 27.2458 33.1689 26.0216 32.3157 25.0804C31.8422 24.534 31.2559 24.0968 30.5971 23.7989C29.9384 23.5009 29.2229 23.3493 28.4999 23.3546Z" fill="#6C5DD3"/>
<path d="M30.8749 29.6563H26.1407C25.8264 29.6542 25.5255 29.5284 25.3033 29.3061C25.081 29.0839 24.9553 28.7831 24.9532 28.4688C24.9553 28.1544 25.081 27.8536 25.3033 27.6314C25.5255 27.4091 25.8264 27.2833 26.1407 27.2812H30.8749C31.1892 27.2833 31.49 27.4091 31.7122 27.6314C31.9345 27.8536 32.0603 28.1544 32.0624 28.4688C32.0603 28.7831 31.9345 29.0839 31.7122 29.3061C31.49 29.5284 31.1892 29.6542 30.8749 29.6563Z" fill="#6C5DD3"/>
<path d="M28.5 32.0779C28.1857 32.0758 27.8849 31.9501 27.6626 31.7278C27.4404 31.5056 27.3146 31.2047 27.3125 30.8904V26.1562C27.3146 25.8419 27.4404 25.5411 27.6626 25.3189C27.8849 25.0966 28.1857 24.9708 28.5 24.9688C28.8143 24.9708 29.1151 25.0966 29.3374 25.3189C29.5596 25.5411 29.6854 25.8419 29.6875 26.1562V30.8904C29.6877 31.0464 29.6571 31.2009 29.5975 31.3451C29.5379 31.4893 29.4505 31.6203 29.3402 31.7306C29.2298 31.8409 29.0989 31.9283 28.9547 31.9879C28.8105 32.0476 28.656 32.0781 28.5 32.0779Z" fill="#6C5DD3"/>
</svg>
