<svg width="40" height="100" viewBox="0 0 40 100" fill="none" xmlns="http://www.w3.org/2000/svg">
<g clip-path="url(#clip0_91_38603)">
<path d="M21.0715 13.7673L30.9132 3.01447L38.2198 15.5789" stroke="#808191" stroke-width="3" stroke-linecap="round"/>
<path d="M31.4995 9.03913C31.5211 8.21098 30.8673 7.52212 30.0391 7.50052C29.211 7.47892 28.5221 8.13275 28.5005 8.96089L31.4995 9.03913ZM0.328691 97.063C-0.188824 97.7099 -0.0839411 98.6538 0.562951 99.1713C1.20984 99.6888 2.15378 99.5839 2.67129 98.937L0.328691 97.063ZM2.67129 98.937C3.38895 98.04 4.08937 97.1293 4.77294 96.2062L2.36201 94.4209C1.70012 95.3147 1.02246 96.1957 0.328691 97.063L2.67129 98.937ZM8.67157 90.5339C9.90482 88.6017 11.0743 86.6291 12.183 84.6256L9.55809 83.173C8.47814 85.1246 7.3406 87.0431 6.14275 88.9199L8.67157 90.5339ZM15.3324 78.5265C16.327 76.4613 17.2637 74.3739 18.1456 72.2736L15.3795 71.1122C14.5165 73.1676 13.6008 75.2081 12.6296 77.2247L15.3324 78.5265ZM20.6469 65.8965C21.4367 63.7381 22.1729 61.5755 22.8587 59.4188L19.9997 58.5097C19.3263 60.6276 18.6039 62.7494 17.8296 64.8657L20.6469 65.8965ZM24.8002 52.8592C25.4127 50.63 25.9739 48.4175 26.4875 46.2331L23.5671 45.5464C23.0617 47.6963 22.5096 49.8726 21.9074 52.0644L24.8002 52.8592ZM27.9329 39.554C28.3865 37.2645 28.7888 35.0208 29.1442 32.8371L26.1832 32.3551C25.833 34.5063 25.4368 36.7163 24.9901 38.971L27.9329 39.554ZM30.128 26.0677C30.4311 23.697 30.6777 21.427 30.8749 19.2796L27.8874 19.0053C27.6935 21.1177 27.4507 23.3523 27.1522 25.6872L30.128 26.0677ZM31.3666 12.4526C31.4279 11.2503 31.4715 10.1104 31.4995 9.03913L28.5005 8.96089C28.4732 10.0063 28.4306 11.1214 28.3705 12.2999L31.3666 12.4526Z" fill="#808191"/>
</g>
<defs>
<clipPath id="clip0_91_38603">
<rect width="40" height="100" fill="white"/>
</clipPath>
</defs>
</svg>
