<svg width="24" height="24" viewBox="0 0 24 24" fill="none" xmlns="http://www.w3.org/2000/svg">
<path d="M20.19 14.0597L19.06 12.1797C18.7803 11.6616 18.6197 11.0877 18.59 10.4997V8.62969C18.59 6.88589 17.8973 5.21351 16.6642 3.98046C15.4312 2.74741 13.7588 2.05469 12.015 2.05469C10.2712 2.05469 8.59884 2.74741 7.36579 3.98046C6.13274 5.21351 5.44002 6.88589 5.44002 8.62969V10.4897C5.409 11.0762 5.25211 11.6492 4.98002 12.1697L3.85002 14.0497C3.63898 14.3861 3.50607 14.7656 3.46107 15.1602C3.41608 15.5547 3.46014 15.9544 3.59002 16.3297C3.73287 16.7015 3.95832 17.036 4.24935 17.308C4.54037 17.58 4.88938 17.7823 5.27002 17.8997C6.3411 18.2529 7.43763 18.5237 8.55002 18.7097C8.66002 18.7297 8.77002 18.7397 8.88002 18.7597L9.32002 18.8197C9.58002 18.8597 9.84002 18.8897 10.11 18.9097C10.74 18.9697 11.38 18.9997 12.02 18.9997C12.66 18.9997 13.28 18.9697 13.9 18.9097C14.13 18.8897 14.36 18.8697 14.58 18.8397C14.76 18.8197 14.94 18.7997 15.12 18.7697C15.23 18.7597 15.34 18.7397 15.45 18.7197C16.5737 18.5363 17.6807 18.262 18.76 17.8997C19.1336 17.7748 19.4747 17.5682 19.7584 17.2948C20.0421 17.0215 20.2613 16.6884 20.4 16.3197C20.5375 15.9515 20.59 15.557 20.5537 15.1657C20.5173 14.7743 20.393 14.3962 20.19 14.0597ZM12.75 9.99969C12.75 10.2013 12.6699 10.3946 12.5274 10.5371C12.3849 10.6796 12.1916 10.7597 11.99 10.7597C11.7885 10.7597 11.5951 10.6796 11.4526 10.5371C11.3101 10.3946 11.23 10.2013 11.23 9.99969V6.89969C11.23 6.69812 11.3101 6.50481 11.4526 6.36229C11.5951 6.21976 11.7885 6.13969 11.99 6.13969C12.1916 6.13969 12.3849 6.21976 12.5274 6.36229C12.6699 6.50481 12.75 6.69812 12.75 6.89969V9.99969Z" fill="#11142D"/>
<path d="M14.83 20.01C14.6197 20.5922 14.2353 21.0954 13.7289 21.4515C13.2226 21.8075 12.619 21.999 12 22C11.6052 22.0003 11.2143 21.9217 10.8502 21.7689C10.4862 21.616 10.1563 21.392 9.87999 21.11C9.56084 20.8016 9.32073 20.4209 9.17999 20C9.30999 20.02 9.43999 20.03 9.57999 20.05C9.80999 20.08 10.05 20.11 10.29 20.13C10.86 20.18 11.44 20.21 12.02 20.21C12.6 20.21 13.16 20.18 13.72 20.13C13.93 20.11 14.14 20.1 14.34 20.07L14.83 20.01Z" fill="#11142D"/>
</svg>
