<svg width="28" height="24" viewBox="0 0 28 24" fill="none" xmlns="http://www.w3.org/2000/svg">
<path d="M21.52 24H6.48C4.93958 23.9993 3.46235 23.3875 2.37249 22.2989C1.28262 21.2103 0.66914 19.7338 0.666668 18.1933V10.2813C0.66914 8.74092 1.28262 7.2644 2.37249 6.17578C3.46235 5.08716 4.93958 4.47538 6.48 4.47467C6.53362 4.47672 6.58661 4.46255 6.63204 4.434C6.67748 4.40546 6.71324 4.36387 6.73467 4.31467L6.81333 4.15467L6.924 3.92134C7.272 3.18801 7.66667 2.35734 7.90667 1.87734C8.16749 1.31586 8.58353 0.84074 9.10567 0.508084C9.62781 0.175428 10.2342 -0.000870754 10.8533 6.78201e-06H17.1333C17.7545 -0.00227913 18.3633 0.173288 18.8878 0.505959C19.4123 0.838631 19.8306 1.3145 20.0933 1.87734C20.3027 2.29734 20.6267 2.97067 20.9293 3.62134L21.1187 4.02134L21.252 4.31467C21.2776 4.36316 21.316 4.40372 21.363 4.43192C21.41 4.46013 21.4638 4.47492 21.5187 4.47467C23.0593 4.47502 24.5369 5.08665 25.627 6.17531C26.7172 7.26397 27.3309 8.74069 27.3333 10.2813V18.1933C27.3309 19.7338 26.7174 21.2103 25.6275 22.2989C24.5376 23.3875 23.0604 23.9993 21.52 24ZM14 8.53334C13.3083 8.53272 12.6233 8.66934 11.9848 8.93529C11.3462 9.20124 10.7668 9.59123 10.28 10.0827C9.79424 10.5658 9.40963 11.1409 9.14864 11.7743C8.88766 12.4078 8.75554 13.0869 8.76 13.772C8.75983 14.4599 8.89529 15.141 9.15864 15.7765C9.422 16.4119 9.80807 16.9892 10.2948 17.4753C10.7815 17.9614 11.3593 18.3467 11.995 18.6092C12.6308 18.8718 13.3121 19.0064 14 19.0053C14.6862 19.0065 15.3658 18.8718 15.9997 18.6091C16.6335 18.3464 17.2092 17.9609 17.6933 17.4747C18.1824 16.9904 18.5709 16.4142 18.8364 15.7792C19.1019 15.1443 19.2393 14.463 19.2405 13.7748C19.2418 13.0865 19.1069 12.4048 18.8436 11.7689C18.5804 11.133 18.194 10.5554 17.7067 10.0693C17.2213 9.58059 16.6438 9.19312 16.0074 8.92944C15.3711 8.66576 14.6888 8.53112 14 8.53334ZM21.48 8.21467C21.2438 8.21757 21.0138 8.29011 20.8186 8.42319C20.6235 8.55626 20.472 8.74397 20.383 8.96279C20.2941 9.1816 20.2717 9.4218 20.3187 9.65327C20.3657 9.88475 20.4799 10.0972 20.6471 10.264C20.8143 10.4309 21.027 10.5447 21.2586 10.5911C21.4902 10.6376 21.7303 10.6147 21.949 10.5253C22.1676 10.4359 22.355 10.2839 22.4876 10.0885C22.6203 9.89309 22.6923 9.66286 22.6947 9.42667C22.6948 9.26736 22.6635 9.10959 22.6025 8.96244C22.5414 8.81529 22.4519 8.68166 22.339 8.56926C22.2261 8.45686 22.0921 8.3679 21.9446 8.3075C21.7972 8.2471 21.6393 8.21646 21.48 8.21734V8.21467ZM14 17.008C13.5745 17.0092 13.153 16.9264 12.7596 16.7643C12.3662 16.6021 12.0087 16.3639 11.7076 16.0632C11.4066 15.7625 11.1679 15.4053 11.0053 15.0121C10.8427 14.6189 10.7593 14.1975 10.76 13.772V13.7587C10.7542 13.3374 10.834 12.9193 10.9944 12.5297C11.1548 12.1401 11.3926 11.7871 11.6933 11.492C12.0682 11.1122 12.5312 10.8308 13.041 10.673C13.5508 10.5151 14.0917 10.4856 14.6156 10.5872C15.1396 10.6887 15.6303 10.9181 16.0443 11.2549C16.4582 11.5918 16.7826 12.0256 16.9885 12.518C17.1943 13.0104 17.2754 13.546 17.2245 14.0772C17.1736 14.6085 16.9922 15.1189 16.6965 15.5632C16.4008 16.0075 15.9999 16.3718 15.5295 16.6239C15.0591 16.8759 14.5337 17.0079 14 17.008Z" fill="#808191"/>
</svg>
