<svg id="SvgjsSvg1001" width="288" height="288" xmlns="http://www.w3.org/2000/svg" version="1.1" xmlns:xlink="http://www.w3.org/1999/xlink" xmlns:svgjs="http://svgjs.com/svgjs"><defs id="SvgjsDefs1002"></defs><g id="SvgjsG1008"><svg xmlns="http://www.w3.org/2000/svg" width="288" height="288" viewBox="0 0 128 128"><path d="M 64 13.5 C 36.2 13.5 13.5 36.2 13.5 64 C 13.5 91.8 36.2 114.5 64 114.5 C 91.8 114.5 114.5 91.8 114.5 64 C 114.5 36.2 91.8 13.5 64 13.5 z M 64 19.5 C 88.5 19.5 108.5 39.5 108.5 64 C 108.5 88.5 88.5 108.5 64 108.5 C 39.5 108.5 19.5 88.5 19.5 64 C 19.5 39.5 39.5 19.5 64 19.5 z M 64 31 C 62.3 31 61 32.3 61 34 L 61 58.800781 C 59.2 59.800781 58 61.8 58 64 C 58 67.3 60.7 70 64 70 C 66.2 70 68.199219 68.8 69.199219 67 L 84 67 C 85.7 67 87 65.7 87 64 C 87 62.3 85.7 61 84 61 L 69.199219 61 C 68.699219 60.1 67.9 59.300781 67 58.800781 L 67 34 C 67 32.3 65.7 31 64 31 z" fill="#9ca3af" class="color000 svgShape"></path></svg></g></svg>