<svg width="46" height="46" viewBox="0 0 46 46" fill="none" xmlns="http://www.w3.org/2000/svg">
<g filter="url(#filter0_d_35_114)">
<circle cx="23" cy="19" r="19" fill="#808191"/>
<circle cx="23" cy="19" r="18.5" stroke="white"/>
</g>
<path d="M30.5 27.3333H15.5C15.3346 27.3322 15.1762 27.266 15.0593 27.149C14.9423 27.032 14.8761 26.8737 14.875 26.7083C14.8761 26.5428 14.9423 26.3845 15.0593 26.2675C15.1762 26.1505 15.3346 26.0843 15.5 26.0833H30.5C30.6654 26.0843 30.8238 26.1505 30.9407 26.2675C31.0577 26.3845 31.1239 26.5428 31.125 26.7083C31.1239 26.8737 31.0577 27.032 30.9407 27.149C30.8238 27.266 30.6654 27.3322 30.5 27.3333Z" fill="white"/>
<path d="M28.85 11.9C27.2333 10.2834 25.65 10.2417 23.9916 11.9L22.9833 12.9084C22.9417 12.952 22.9122 13.0056 22.8975 13.064C22.8829 13.1225 22.8838 13.1837 22.9 13.2417C23.2187 14.3354 23.808 15.331 24.6135 16.1365C25.419 16.942 26.4146 17.5313 27.5083 17.85C27.5408 17.8597 27.5744 17.8653 27.6083 17.8667C27.6532 17.8672 27.6978 17.8586 27.7393 17.8414C27.7809 17.8242 27.8185 17.7988 27.85 17.7667L28.85 16.7584C29.2059 16.4603 29.498 16.0932 29.7085 15.6794C29.919 15.2655 30.0437 14.8133 30.075 14.35C30.05 13.8794 29.9283 13.419 29.7176 12.9975C29.5068 12.576 29.2115 12.2024 28.85 11.9Z" fill="white"/>
<path d="M26.0083 18.6084C25.7667 18.4917 25.5333 18.3751 25.3083 18.2417C25.125 18.1334 24.95 18.0167 24.775 17.8917C24.6126 17.7815 24.4568 17.6619 24.3083 17.5334C24.2573 17.4962 24.2099 17.4544 24.1667 17.4084C23.8561 17.1449 23.5689 16.8549 23.3083 16.5417C23.262 16.4959 23.2201 16.4456 23.1833 16.3917C23.0577 16.2461 22.9408 16.093 22.8333 15.9334C22.7146 15.7767 22.606 15.6125 22.5083 15.4417C22.375 15.2167 22.2583 14.9917 22.1417 14.7584C22.025 14.5084 21.9333 14.2667 21.85 14.0417L16.6167 19.2751C16.5003 19.4049 16.4198 19.5629 16.3833 19.7334L15.9333 22.9251C15.8869 23.1845 15.9011 23.4511 15.9748 23.7041C16.0486 23.9571 16.1798 24.1896 16.3583 24.3834C16.6737 24.6798 17.0923 24.8413 17.525 24.8334C17.6255 24.8334 17.7259 24.825 17.825 24.8084L21.025 24.3584C21.1967 24.3254 21.3556 24.2445 21.4833 24.1251L26.7167 18.8917C26.4833 18.8084 26.2583 18.7167 26.0083 18.6084Z" fill="white"/>
<defs>
<filter id="filter0_d_35_114" x="0" y="0" width="46" height="46" filterUnits="userSpaceOnUse" color-interpolation-filters="sRGB">
<feFlood flood-opacity="0" result="BackgroundImageFix"/>
<feColorMatrix in="SourceAlpha" type="matrix" values="0 0 0 0 0 0 0 0 0 0 0 0 0 0 0 0 0 0 127 0" result="hardAlpha"/>
<feOffset dy="4"/>
<feGaussianBlur stdDeviation="2"/>
<feComposite in2="hardAlpha" operator="out"/>
<feColorMatrix type="matrix" values="0 0 0 0 0 0 0 0 0 0 0 0 0 0 0 0 0 0 0.12 0"/>
<feBlend mode="normal" in2="BackgroundImageFix" result="effect1_dropShadow_35_114"/>
<feBlend mode="normal" in="SourceGraphic" in2="effect1_dropShadow_35_114" result="shape"/>
</filter>
</defs>
</svg>
