<svg width="24" height="24" viewBox="0 0 24 24" fill="none" xmlns="http://www.w3.org/2000/svg">
<path d="M15.26 22.2501H8.73998C3.82998 22.2501 1.72998 20.1501 1.72998 15.2401V15.1101C1.72998 10.6701 3.47998 8.53009 7.39998 8.15809C7.59784 8.1444 7.79339 8.20739 7.94606 8.334C8.09873 8.4606 8.19682 8.64111 8.21998 8.83809C8.22948 8.93664 8.2194 9.03609 8.19032 9.13073C8.16124 9.22536 8.11373 9.31332 8.05053 9.38953C7.98733 9.46573 7.90969 9.5287 7.82207 9.57479C7.73445 9.62088 7.63858 9.64919 7.53998 9.65809C4.39998 9.94809 3.22998 11.4281 3.22998 15.1181V15.2481C3.22998 19.3181 4.66998 20.7581 8.73998 20.7581H15.26C19.33 20.7581 20.77 19.3181 20.77 15.2481V15.1181C20.77 11.4081 19.58 9.92809 16.38 9.65809C16.2806 9.65155 16.1836 9.62524 16.0945 9.58071C16.0055 9.53617 15.9262 9.4743 15.8614 9.39873C15.7965 9.32315 15.7475 9.2354 15.717 9.1406C15.6865 9.04581 15.6753 8.94589 15.6839 8.84669C15.6926 8.7475 15.721 8.65103 15.7674 8.56295C15.8138 8.47486 15.8774 8.39693 15.9543 8.33373C16.0312 8.27052 16.12 8.22332 16.2154 8.19487C16.3109 8.16643 16.411 8.15733 16.51 8.16809C20.49 8.50809 22.27 10.6581 22.27 15.1281V15.2581C22.27 20.1501 20.17 22.2501 15.26 22.2501Z" fill="#11142D"/>
<path d="M12 15.63C11.8015 15.6287 11.6115 15.5493 11.4711 15.4089C11.3307 15.2685 11.2513 15.0785 11.25 14.88V2C11.2513 1.80149 11.3307 1.61149 11.4711 1.47112C11.6115 1.33075 11.8015 1.25131 12 1.25C12.1985 1.25131 12.3885 1.33075 12.5289 1.47112C12.6693 1.61149 12.7487 1.80149 12.75 2V14.88C12.7501 14.9785 12.7308 15.0761 12.6932 15.1672C12.6555 15.2582 12.6003 15.341 12.5306 15.4106C12.461 15.4803 12.3782 15.5355 12.2872 15.5732C12.1961 15.6108 12.0985 15.6301 12 15.63Z" fill="#11142D"/>
<path d="M12.003 16.7502C11.9044 16.7506 11.8068 16.7313 11.7158 16.6935C11.6248 16.6558 11.5423 16.6003 11.473 16.5302L8.12097 13.1802C7.98849 13.0381 7.91637 12.85 7.91979 12.6557C7.92322 12.4614 8.00193 12.276 8.13935 12.1386C8.27676 12.0012 8.46215 11.9225 8.65645 11.9191C8.85075 11.9156 9.03879 11.9878 9.18097 12.1202L12.003 14.9392L14.821 12.1202C14.9631 11.9878 15.1512 11.9156 15.3455 11.9191C15.5398 11.9225 15.7252 12.0012 15.8626 12.1386C16 12.276 16.0787 12.4614 16.0821 12.6557C16.0856 12.85 16.0134 13.0381 15.881 13.1802L12.531 16.5302C12.4619 16.6 12.3797 16.6554 12.289 16.6932C12.1984 16.7309 12.1012 16.7503 12.003 16.7502Z" fill="#11142D"/>
</svg>
