<svg width="32" height="32" viewBox="0 0 32 32" fill="none" xmlns="http://www.w3.org/2000/svg">
<path d="M15.9999 2.6667C14.3394 2.67256 12.7476 3.33091 11.5681 4.49974C10.3886 5.66858 9.71575 7.25422 9.69475 8.91465C9.67375 10.5751 10.3063 12.1772 11.4559 13.3755C12.6055 14.5738 14.18 15.2722 15.8399 15.32C15.9372 15.3066 16.0359 15.3066 16.1332 15.32H16.2266C17.8932 15.2735 19.4741 14.571 20.6258 13.3653C21.7774 12.1596 22.4066 10.5482 22.3768 8.88117C22.3469 7.21414 21.6603 5.62625 20.4663 4.4626C19.2722 3.29895 17.6672 2.65356 15.9999 2.6667Z" fill="white"/>
<path d="M22.7733 18.8668C20.7261 17.6494 18.3884 17.0068 16.0066 17.0068C13.6248 17.0068 11.2871 17.6494 9.23998 18.8668C8.47654 19.3073 7.83595 19.9324 7.37701 20.6849C6.91807 21.4374 6.65547 22.2931 6.61331 23.1735C6.65448 24.0489 6.91547 24.8999 7.3722 25.648C7.82893 26.396 8.46669 27.0169 9.22664 27.4535C11.2539 28.7247 13.6075 29.378 16 29.3335C18.3924 29.378 20.746 28.7247 22.7733 27.4535C23.5344 27.0116 24.1725 26.3858 24.6291 25.6333C25.0856 24.8809 25.3461 24.026 25.3866 23.1468C25.3427 22.272 25.0806 21.4221 24.6241 20.6746C24.1677 19.927 23.5314 19.3056 22.7733 18.8668Z" fill="white"/>
</svg>
