<svg width="24" height="24" viewBox="0 0 24 24" fill="none" xmlns="http://www.w3.org/2000/svg">
<path d="M16.75 7.75H7.25C7.05149 7.74869 6.86149 7.66925 6.72112 7.52888C6.58075 7.38851 6.50131 7.19851 6.5 7V5C6.5 2.44 7.69 1.25 10.25 1.25H13.75C16.31 1.25 17.5 2.44 17.5 5V7C17.4987 7.19851 17.4193 7.38851 17.2789 7.52888C17.1385 7.66925 16.9485 7.74869 16.75 7.75ZM8 6.25H16V5C16 3.3 15.45 2.75 13.75 2.75H10.25C8.55 2.75 8 3.3 8 5V6.25Z" fill="#11142D"/>
<path d="M13.0001 22.75H11.0001C10.4933 22.8091 9.97978 22.7528 9.49791 22.5852C9.01603 22.4177 8.57832 22.1433 8.21757 21.7825C7.85682 21.4218 7.58239 20.984 7.41483 20.5022C7.24728 20.0203 7.19095 19.5067 7.25007 19V15C7.25138 14.8015 7.33082 14.6115 7.47119 14.4711C7.61156 14.3307 7.80156 14.2513 8.00007 14.25H16.0001C16.1986 14.2513 16.3886 14.3307 16.529 14.4711C16.6693 14.6115 16.7488 14.8015 16.7501 15V19C16.8092 19.5067 16.7529 20.0203 16.5853 20.5022C16.4178 20.984 16.1433 21.4218 15.7826 21.7825C15.4218 22.1433 14.9841 22.4177 14.5022 22.5852C14.0204 22.7528 13.5068 22.8091 13.0001 22.75ZM8.75007 15.75V19C8.75007 20.58 9.42007 21.25 11.0001 21.25H13.0001C14.5801 21.25 15.2501 20.58 15.2501 19V15.75H8.75007Z" fill="#11142D"/>
<path d="M18.0001 18.7498H16.0001C15.8016 18.7485 15.6116 18.6691 15.4712 18.5287C15.3308 18.3883 15.2514 18.1983 15.2501 17.9998V15.7498H8.75007V17.9998C8.74876 18.1983 8.66932 18.3883 8.52895 18.5287C8.38858 18.6691 8.19858 18.7485 8.00007 18.7498H6.00007C5.49333 18.8089 4.97978 18.7526 4.49791 18.5851C4.01603 18.4175 3.57832 18.1431 3.21757 17.7823C2.85682 17.4216 2.58239 16.9839 2.41483 16.502C2.24728 16.0201 2.19095 15.5066 2.25007 14.9998V9.99983C2.19095 9.49309 2.24728 8.97954 2.41483 8.49766C2.58239 8.01578 2.85682 7.57807 3.21757 7.21732C3.57832 6.85657 4.01603 6.58214 4.49791 6.41459C4.97978 6.24704 5.49333 6.19071 6.00007 6.24983H18.0001C18.5068 6.19071 19.0204 6.24704 19.5022 6.41459C19.9841 6.58214 20.4218 6.85657 20.7826 7.21732C21.1433 7.57807 21.4178 8.01578 21.5853 8.49766C21.7529 8.97954 21.8092 9.49309 21.7501 9.99983V14.9998C21.8092 15.5066 21.7529 16.0201 21.5853 16.502C21.4178 16.9839 21.1433 17.4216 20.7826 17.7823C20.4218 18.1431 19.9841 18.4175 19.5022 18.5851C19.0204 18.7526 18.5068 18.8089 18.0001 18.7498ZM16.7501 17.2498H18.0001C19.5801 17.2498 20.2501 16.5798 20.2501 14.9998V9.99983C20.2501 8.41983 19.5801 7.74983 18.0001 7.74983H6.00007C4.42007 7.74983 3.75007 8.41983 3.75007 9.99983V14.9998C3.75007 16.5798 4.42007 17.2498 6.00007 17.2498H7.25007V14.9998C7.25138 14.8013 7.33082 14.6113 7.47119 14.4709C7.61156 14.3306 7.80156 14.2511 8.00007 14.2498H16.0001C16.1986 14.2511 16.3886 14.3306 16.529 14.4709C16.6693 14.6113 16.7488 14.8013 16.7501 14.9998V17.2498Z" fill="#11142D"/>
<path d="M17 15.75H7C6.80149 15.7487 6.61149 15.6693 6.47112 15.5289C6.33075 15.3885 6.25131 15.1985 6.25 15C6.25131 14.8015 6.33075 14.6115 6.47112 14.4711C6.61149 14.3307 6.80149 14.2513 7 14.25H17C17.1985 14.2513 17.3885 14.3307 17.5289 14.4711C17.6693 14.6115 17.7487 14.8015 17.75 15C17.7487 15.1985 17.6693 15.3885 17.5289 15.5289C17.3885 15.6693 17.1985 15.7487 17 15.75Z" fill="#11142D"/>
<path d="M10 11.75H7C6.80149 11.7487 6.61149 11.6693 6.47112 11.5289C6.33075 11.3885 6.25131 11.1985 6.25 11C6.25131 10.8015 6.33075 10.6115 6.47112 10.4711C6.61149 10.3307 6.80149 10.2513 7 10.25H10C10.1985 10.2513 10.3885 10.3307 10.5289 10.4711C10.6693 10.6115 10.7487 10.8015 10.75 11C10.7487 11.1985 10.6693 11.3885 10.5289 11.5289C10.3885 11.6693 10.1985 11.7487 10 11.75Z" fill="#11142D"/>
</svg>
