<svg width="34" height="95" viewBox="0 0 34 95" fill="none" xmlns="http://www.w3.org/2000/svg">
<path d="M18.3534 88.0774C18.3242 80.2571 18.309 72.4449 18.2078 64.6204C18.2042 64.0782 17.6392 63.3795 17.1466 63.0392C5.34515 54.9965 -0.112076 43.7071 0.433011 29.5697C0.523497 27.2195 1.35817 24.8705 2.91661 22.6229C4.96638 19.6532 8.57578 19.1111 11.5051 21.2307C14.0676 23.0826 15.4842 25.7257 16.63 28.5475C19.1448 34.8044 20.1276 41.4246 20.8783 48.0597C21.3557 52.265 21.5789 56.4912 21.9397 60.834C23.8917 60.9367 26.0479 59.6859 26.8437 57.985C28.3664 54.7669 28.5148 52.8971 28.9316 50.0461C30.2418 41.0995 29.3452 32.2011 27.1573 23.507C25.5296 17.036 23.4393 10.689 21.5473 4.28881C21.3857 3.72994 21.1661 3.17481 21.0465 2.64013C20.8582 1.80506 20.9771 1.14741 21.6247 0.832208C22.1987 0.418651 22.9857 1.15236 23.3718 1.58019C24.0089 2.28322 24.5212 3.13773 24.8734 4.01154C30.5599 17.7426 34.2338 31.8948 33.2167 46.9144C32.99 50.2102 32.2571 53.5119 31.3507 56.6947C30.036 61.2621 27.1716 64.3202 21.9595 64.477C21.7223 71.92 21.4915 79.255 21.2602 86.72C22.4699 84.6248 23.615 82.6413 24.7683 80.6439C24.9618 80.3087 25.1134 79.9493 25.3349 79.6302C25.9289 78.7626 26.4409 77.4565 27.8023 78.1308C29.1357 78.7889 28.4481 80.0121 28.0024 80.8164C25.7695 84.9096 23.4867 88.9925 21.0584 92.9728C20.0649 94.5968 18.5157 94.7639 17.4222 93.2387C14.2168 88.8552 11.2023 84.3025 8.22372 79.752C7.94552 79.3307 7.75618 78.2716 8.60696 77.7012C9.30883 77.3242 10.2506 77.8866 10.6067 78.3343C12.7492 81.0425 14.7773 83.8523 16.8354 86.6423C17.2033 87.134 17.5551 87.6537 17.9149 88.1595C18.3789 89.0978 18.3527 88.6916 18.3534 88.0774ZM17.7504 59.9611C18.2291 60.2933 18.0081 59.16 17.9968 58.9859C17.4092 49.8748 16.5374 40.8044 13.7015 32.0714C12.9457 29.7354 11.7535 27.4455 10.3201 25.4446C8.40534 22.7933 5.75673 23.2197 4.6526 26.3256C3.93946 28.335 3.45138 30.5674 3.48993 32.6942C3.61975 41.7272 8.33915 51.5849 13.0941 56.1553C14.9269 57.8839 15.5136 58.2226 17.7504 59.9611Z" fill="#C1C3C5"/>
</svg>
