<svg width="28" height="20" viewBox="0 0 28 20" fill="none" xmlns="http://www.w3.org/2000/svg">
<path fill-rule="evenodd" clip-rule="evenodd" d="M2.50262 0.213938C0.815388 0.791555 0.0110713 2.06988 0.0110713 4.17403V5.17583H12.7412H25.4712L25.4128 3.97555C25.3622 2.93377 25.3027 2.67122 24.963 1.98786C24.6898 1.43866 24.4028 1.07302 24.0132 0.778668C22.9502 -0.0247687 23.2623 -0.00345118 12.6723 0.001005C3.91975 0.00461812 3.0619 0.0225632 2.50262 0.213938ZM0.0358905 11.5891L0.0719031 16.0754L0.40076 16.6924C0.581552 17.0318 0.981581 17.5291 1.28951 17.7974C2.30066 18.6785 2.1706 18.6648 9.52248 18.6648C13.124 18.6648 16.0706 18.6341 16.0706 18.5965C16.0706 18.5591 15.9378 18.3558 15.7754 18.1449C15.3772 17.6281 14.8074 16.4509 14.5988 15.7141C14.3614 14.8758 14.3826 12.6386 14.6355 11.8444C15.2688 9.8559 16.5689 8.27215 18.3196 7.35647L18.8044 7.10283H9.40227H0L0.0358905 11.5891ZM20.3712 7.87603C18.1423 8.41114 16.1844 10.407 15.7184 12.6187C15.2894 14.6554 15.9002 16.5912 17.4586 18.1339C19.9719 20.622 23.6058 20.622 26.1191 18.1339C28.5898 15.6882 28.6305 12.1691 26.2171 9.63671C24.6965 8.04091 22.4731 7.37128 20.3712 7.87603ZM22.2092 10.4294C22.5609 10.5631 22.7621 11.1472 22.7621 12.0347V12.8838L23.6442 12.8856C24.65 12.8877 25.0824 13.0545 25.2413 13.5018C25.5412 14.3459 24.9653 14.8108 23.6199 14.8108H22.7621V15.6599C22.7621 16.9918 22.2925 17.5618 21.4398 17.265C20.9879 17.1077 20.8194 16.6796 20.8173 15.684L20.8155 14.8108H19.9578C18.6123 14.8108 18.0365 14.3459 18.3364 13.5018C18.4948 13.0558 18.9273 12.8877 19.9209 12.8856L20.7906 12.8838L20.8334 11.8495C20.8714 10.9351 20.9097 10.7883 21.1636 10.5849C21.4544 10.3517 21.8499 10.293 22.2092 10.4294ZM9.51177 13.2284C9.80863 13.5916 9.80851 14.1032 9.51153 14.4662C9.28158 14.7475 9.25299 14.7506 6.90854 14.7506C4.74828 14.7506 4.51542 14.7302 4.28207 14.5212C3.95735 14.2303 3.93253 13.4835 4.23888 13.2192C4.5973 12.9102 4.74439 12.8945 7.04809 12.9197C9.23243 12.9436 9.28438 12.9501 9.51177 13.2284Z" fill="#ADACB1"/>
</svg>
