<svg width="302" height="277" viewBox="0 0 302 277" fill="none" xmlns="http://www.w3.org/2000/svg">
<circle cx="205" cy="11" r="11" fill="#FFA2C0" fill-opacity="0.5"/>
<circle cx="256" cy="262" r="11" fill="#7FBA7A" fill-opacity="0.5"/>
<circle cx="64" cy="235" r="11" fill="#FFA2C0" fill-opacity="0.5"/>
<circle r="2" transform="matrix(-1 0 0 1 245 37)" fill="#FFA2C0" fill-opacity="0.5"/>
<circle r="2" transform="matrix(-1 0 0 1 149 275)" fill="#FFA2C0" fill-opacity="0.5"/>
<circle r="2" transform="matrix(-1 0 0 1 300 222)" fill="#7FBA7A" fill-opacity="0.5"/>
<circle r="2" transform="matrix(-1 0 0 1 2 95)" fill="#FFA2C0" fill-opacity="0.5"/>
<circle r="2" transform="matrix(-1 0 0 1 280 137)" fill="#FFA2C0" fill-opacity="0.5"/>
<circle r="2" transform="matrix(-1 0 0 1 13 165)" fill="#7FBA7A"/>
<circle r="2" transform="matrix(-1 0 0 1 101 33)" fill="#7FBA7A" fill-opacity="0.5"/>
<circle r="8.5" transform="matrix(-1 0 0 1 44.5 71.5)" fill="#FFCE73" fill-opacity="0.5"/>
<circle cx="160" cy="139" r="85" fill="#6C5DD3"/>
<path fill-rule="evenodd" clip-rule="evenodd" d="M150.066 174C147.983 174 145.878 173.182 144.286 171.534L118.396 144.939C115.201 141.655 115.201 136.342 118.396 133.059C121.592 129.775 126.761 129.775 129.956 133.059L150.066 153.703L196.044 106.463C199.239 103.179 204.408 103.179 207.604 106.463C210.799 109.747 210.799 115.059 207.604 118.343L155.846 171.534C154.254 173.182 152.16 174 150.066 174Z" fill="white"/>
</svg>
