<svg width="240" height="246" viewBox="0 0 240 246" fill="none" xmlns="http://www.w3.org/2000/svg">
<path d="M216.28 141.117C216.28 165.121 207.716 186.955 193.4 204.064C175.378 225.642 148.281 239.303 117.861 239.303C88.7186 239.303 62.644 226.663 44.6219 206.618C29.1561 189.253 19.6977 166.27 19.6977 141.117C19.6977 86.8529 63.6666 42.9307 117.988 42.9307C172.31 42.9307 216.28 86.8529 216.28 141.117Z" fill="white"/>
<path fill-rule="evenodd" clip-rule="evenodd" d="M113.562 39.8984C115.03 39.8354 116.506 39.8037 117.988 39.8037C119.471 39.8037 120.947 39.8354 122.415 39.8984L122.147 46.1468C120.768 46.0878 119.382 46.0579 117.988 46.0579C116.595 46.0579 115.209 46.0878 113.83 46.1468L113.562 39.8984ZM131.232 40.6585C134.179 41.0416 137.086 41.5511 139.948 42.1814L138.601 48.289C135.916 47.698 133.189 47.22 130.424 46.8602L131.232 40.6585ZM96.0286 42.1814C98.8906 41.5511 101.798 41.0416 104.745 40.6585L105.553 46.8602C102.788 47.22 100.061 47.698 97.3761 48.289L96.0286 42.1814ZM79.1595 47.4833C81.8751 46.3596 84.6501 45.3502 87.479 44.4612L89.3578 50.4272C86.7049 51.2608 84.1025 52.2075 81.5556 53.2614L79.1595 47.4833ZM148.498 44.4612C151.327 45.3502 154.102 46.3596 156.817 47.4833L154.421 53.2614C151.875 52.2075 149.272 51.2608 146.619 50.4272L148.498 44.4612ZM164.839 51.2227C167.462 52.5886 170.018 54.0657 172.5 55.6476L169.133 60.9201C166.804 59.4358 164.406 58.05 161.945 56.7687L164.839 51.2227ZM63.4765 55.6476C65.9587 54.0657 68.5146 52.5886 71.1381 51.2227L74.0319 56.7687C71.5709 58.05 69.173 59.4358 66.8442 60.9201L63.4765 55.6476ZM179.746 60.7223C182.087 62.5193 184.348 64.4162 186.522 66.4065L182.291 71.0167C180.251 69.1488 178.129 67.3684 175.932 65.6821L179.746 60.7223ZM49.4552 66.4065C51.6286 64.4162 53.8894 62.5193 56.2312 60.7223L60.0453 65.6821C57.8477 67.3684 55.7259 69.1488 53.6859 71.0167L49.4552 66.4065ZM192.779 72.6568C194.771 74.8281 196.67 77.0865 198.469 79.4258L193.504 83.2356C191.816 81.0404 190.033 78.9208 188.164 76.883L192.779 72.6568ZM37.508 79.4258C39.307 77.0865 41.2059 74.8281 43.1983 72.6568L47.8134 76.883C45.9433 78.9208 44.1613 81.0404 42.4731 83.2356L37.508 79.4258ZM203.549 86.6634C205.133 89.1428 206.611 91.696 207.979 94.3167L202.427 97.2074C201.144 94.7491 199.757 92.3537 198.271 90.0273L203.549 86.6634ZM27.9982 94.3167C29.3656 91.6962 30.8444 89.1428 32.428 86.6634L37.7061 90.0273C36.2202 92.3537 34.833 94.7491 33.5503 97.2074L27.9982 94.3167ZM211.722 102.33C212.847 105.042 213.857 107.815 214.748 110.64L208.775 112.517C207.94 109.867 206.993 107.267 205.938 104.723L211.722 102.33ZM21.2298 110.64C22.1197 107.815 23.1302 105.042 24.255 102.33L30.0392 104.723C28.9843 107.267 28.0366 109.867 27.202 112.517L21.2298 110.64ZM17.4228 127.888C17.8065 124.944 18.3166 122.04 18.9475 119.181L25.0616 120.527C24.4698 123.209 23.9912 125.933 23.6312 128.696L17.4228 127.888ZM217.029 119.181C217.661 122.04 218.17 124.944 218.554 127.888L212.346 128.696C211.985 125.933 211.507 123.209 210.916 120.527L217.029 119.181ZM16.5673 141.118C16.5673 139.636 16.599 138.162 16.662 136.696L22.9171 136.964C22.858 138.341 22.8282 139.726 22.8282 141.118C22.8282 142.571 22.8607 144.017 22.9252 145.454L16.6706 145.734C16.602 144.204 16.5673 142.664 16.5673 141.118ZM219.314 136.696C219.379 138.162 219.41 139.636 219.41 141.118C219.41 142.594 219.379 144.062 219.316 145.522L213.062 145.256C213.12 143.884 213.149 142.505 213.149 141.118C213.149 139.726 213.118 138.341 213.059 136.964L219.314 136.696ZM218.563 154.301C218.181 157.238 217.674 160.135 217.046 162.985L210.931 161.642C211.519 158.969 211.995 156.253 212.352 153.497L218.563 154.301ZM19.1632 164.02C18.4758 161.039 17.9195 158.007 17.5008 154.933L23.7045 154.09C24.0975 156.975 24.6194 159.819 25.2643 162.616L19.1632 164.02ZM214.773 171.505C213.886 174.322 212.88 177.086 211.759 179.791L205.974 177.398C207.025 174.861 207.969 172.27 208.8 169.629L214.773 171.505ZM24.9354 181.553C23.7143 178.739 22.6162 175.859 21.6482 172.918L27.5956 170.964C28.5037 173.723 29.534 176.425 30.6797 179.066L24.9354 181.553ZM208.027 187.78C206.665 190.391 205.192 192.936 203.613 195.411L198.334 192.05C199.815 189.728 201.197 187.339 202.475 184.89L208.027 187.78ZM33.7939 197.748C32.0803 195.197 30.4786 192.562 28.996 189.852L34.4901 186.853C35.8813 189.397 37.3847 191.869 38.9929 194.263L33.7939 197.748ZM198.557 202.63C197.664 203.796 196.745 204.943 195.802 206.07L193.4 204.064L195.804 206.068C195.803 206.068 195.803 206.069 195.802 206.07L198.557 202.63ZM42.2832 208.697C41.2591 207.547 40.2605 206.373 39.2884 205.176L44.15 201.236C45.0609 202.357 45.9965 203.456 46.9559 204.534C47.846 205.524 48.7561 206.495 49.6859 207.446L45.2052 211.814C44.2132 210.799 43.2422 209.762 42.2928 208.708L42.2832 208.697ZM186.621 215.702C184.444 217.705 182.178 219.615 179.831 221.422L176.008 216.469C178.21 214.774 180.336 212.983 182.379 211.103L186.621 215.702ZM58.0687 222.961C55.7725 221.283 53.5492 219.513 51.4045 217.655L55.507 212.929C57.5207 214.674 59.6079 216.338 61.7633 217.912L58.0687 222.961ZM172.565 226.528C170.076 228.119 167.512 229.603 164.879 230.977L161.981 225.433C164.451 224.145 166.856 222.752 169.192 221.26L172.565 226.528ZM72.6125 231.815C70.0631 230.543 67.575 229.167 65.1537 227.691L68.4125 222.352C70.6846 223.734 73.0187 225.027 75.4103 226.219L72.6125 231.815ZM156.829 234.733C154.104 235.861 151.319 236.875 148.479 237.767L146.602 231.8C149.265 230.962 151.877 230.014 154.432 228.955L156.829 234.733ZM88.4427 238.105C85.7088 237.279 83.0241 236.341 80.3942 235.294L82.7086 229.484C85.1752 230.464 87.6927 231.344 90.2563 232.119L88.4427 238.105ZM139.896 240.052C137.024 240.683 134.105 241.194 131.147 241.578L130.341 235.376C133.118 235.015 135.856 234.535 138.551 233.943L139.896 240.052ZM105.106 241.638C102.266 241.284 99.4621 240.811 96.7004 240.225L97.9997 234.106C100.59 234.656 103.22 235.098 105.885 235.434L105.106 241.638ZM122.301 242.337C120.829 242.399 119.348 242.43 117.861 242.43C116.433 242.43 115.012 242.401 113.599 242.343L113.857 236.095C115.184 236.149 116.519 236.176 117.861 236.176C119.259 236.176 120.651 236.147 122.034 236.089L122.301 242.337Z" fill="#D6DCE8"/>
<path d="M154.18 147.558C153.438 150.708 152.325 154.043 151.027 156.823C147.503 163.678 141.938 169.052 135.075 172.572C128.027 176.093 119.68 177.575 111.333 175.722C91.6716 171.646 79.0587 152.376 83.1393 132.735C87.2199 113.094 106.325 100.31 125.986 104.571C133.035 106.054 139.156 109.574 144.35 114.392C153.067 123.1 156.777 135.7 154.18 147.558Z" fill="url(#paint0_linear_119_36)"/>
<path d="M130.253 136.997H121.906V128.659C121.906 126.991 120.607 125.509 118.753 125.509C117.083 125.509 115.599 126.806 115.599 128.659V136.997H107.252C105.583 136.997 104.099 138.294 104.099 140.147C104.099 142 105.397 143.297 107.252 143.297H115.599V151.635C115.599 153.302 116.898 154.784 118.753 154.784C120.422 154.784 121.906 153.488 121.906 151.635V143.297H130.253C131.922 143.297 133.406 142 133.406 140.147C133.406 138.294 131.922 136.997 130.253 136.997Z" fill="white"/>
<path d="M161.429 42.9739C161.429 54.5538 156.797 64.8468 149.59 72.5669C149.076 73.3388 148.304 73.8534 147.531 74.3681C139.81 81.5734 129.515 85.948 118.191 85.948C109.183 85.948 100.69 83.1173 93.7407 78.228C91.6817 76.9415 89.88 75.1401 88.0786 73.5961C80.0999 65.8763 75.21 55.0683 75.21 42.9739C75.21 19.2997 94.5129 0 118.191 0C142.127 0 161.429 19.2997 161.429 42.9739Z" fill="#E9F0F8"/>
<path d="M161.429 42.9715C161.429 55.5807 156.025 66.6459 147.531 74.6229C139.81 81.8282 129.515 86.2029 118.191 86.2029C109.183 86.2029 100.69 83.3722 93.7407 78.4828C82.4164 70.763 75.21 57.8966 75.21 43.2288C75.21 19.5546 94.5129 0.254883 118.191 0.254883C141.869 0.254883 161.429 19.2972 161.429 42.9715Z" fill="#F1F3F9"/>
<path d="M149.591 72.567C149.076 73.3389 148.304 73.8537 147.532 74.3684C139.811 81.5735 129.516 85.9481 118.192 85.9481C109.184 85.9481 100.69 83.1174 93.7413 78.2283C91.6823 76.9416 89.8808 75.1404 88.0791 73.5964C89.1086 72.3097 90.6528 71.5377 93.9986 70.251L95.2856 69.7363C97.8593 68.707 101.462 67.4203 106.095 65.3619C106.867 65.1044 107.382 64.5899 107.897 64.0752C108.154 63.8179 108.412 63.5604 108.412 63.0459C108.669 62.5312 108.926 61.7592 108.926 61.2445V52.4952C108.669 52.238 108.669 52.238 108.412 51.9807C107.639 50.9513 107.125 49.6648 107.125 48.1208L106.61 47.8633C104.294 48.3781 104.551 46.0621 104.036 41.4302C103.779 39.6288 104.036 39.1143 105.066 38.8568L105.838 37.8276C104.294 34.2249 103.521 30.8798 103.521 28.3063C103.521 23.9317 105.323 21.1013 107.897 19.8145C106.353 16.7266 106.353 15.6973 106.353 15.6973C106.353 15.6973 115.36 17.2412 118.449 16.7266C122.31 15.9546 128.486 16.9839 130.803 22.1305C134.663 23.6745 135.95 25.9904 136.465 28.5638C136.98 32.681 134.663 37.0556 134.149 38.8568V39.1143C134.663 39.3716 134.921 39.8863 134.663 41.6875C134.149 46.0621 134.149 48.6353 132.09 48.1208L130.031 51.7233C130.031 52.238 130.031 52.238 129.773 52.4952C129.773 53.2672 129.773 54.5539 129.773 61.5018C129.773 62.2737 130.031 63.3032 130.545 63.8177C130.803 64.0752 130.803 64.3324 131.06 64.3324C131.575 64.8471 132.09 65.3619 132.604 65.3619C137.752 67.4203 141.355 68.9643 144.186 69.9938C146.76 71.023 148.561 71.795 149.591 72.567Z" fill="white"/>
<path d="M149.591 72.567C149.076 73.339 148.304 73.8537 147.532 74.3684C139.811 81.5735 129.516 85.9481 118.192 85.9481C109.184 85.9481 100.69 83.1175 93.7413 78.2283C91.6823 76.9416 89.8808 75.1404 88.0791 73.5964C89.1086 72.3097 90.6528 71.5377 93.9986 70.251L95.2856 69.7365C97.8593 68.7071 101.462 67.4206 106.095 65.3619C106.867 65.1044 107.382 64.5899 107.897 64.0752C110.471 67.6778 114.589 69.9938 119.478 69.9938C124.111 69.9938 128.229 67.6778 130.803 64.3325C131.318 64.8472 131.832 65.3619 132.347 65.3619C137.495 67.4206 141.098 68.9645 143.929 69.9938C146.76 71.023 148.561 71.795 149.591 72.567Z" fill="#D6DCE8"/>
<path d="M133.892 38.5996C134.149 37.5703 133.634 36.0262 133.119 35.2542C133.119 34.9969 132.862 34.9969 132.862 34.7397C131.061 31.137 127.2 29.8503 123.597 29.5931C114.074 29.0783 113.302 30.8798 110.471 28.3063C111.5 29.5931 111.5 31.909 109.956 34.4822C108.927 36.2836 107.125 37.3129 105.323 37.8276C100.948 28.0491 103.264 21.8732 107.382 19.8145C105.838 16.7266 105.838 15.6973 105.838 15.6973C105.838 15.6973 114.846 17.2412 117.934 16.7266C121.795 15.9546 127.972 16.9839 130.288 22.1305C134.149 23.6745 135.436 25.9904 135.951 28.5638C136.723 32.4237 134.406 36.7983 133.892 38.5996Z" fill="#AAB2C5"/>
<path d="M109.183 61.2443V52.4951C108.926 52.2378 108.926 52.2378 108.669 51.9803V51.4658C109.183 52.2378 109.698 53.0098 110.47 53.5243L117.419 58.4137C118.963 59.7004 121.28 59.7004 122.824 58.4137L129.258 52.7523C129.516 52.4951 129.773 52.4951 130.03 52.2378C130.03 53.0098 130.03 54.2963 130.03 61.2443C130.03 61.7588 130.03 62.0163 130.288 62.5308H109.183C108.926 62.0163 109.183 61.7588 109.183 61.2443Z" fill="url(#paint1_linear_119_36)"/>
<path d="M238.508 201.835C238.508 213.415 233.875 223.708 226.668 231.427C226.153 232.201 225.381 232.716 224.609 233.229C216.887 240.436 206.593 244.809 195.269 244.809C186.261 244.809 177.768 241.978 170.818 237.09C168.759 235.803 166.958 234.002 165.156 232.457C157.178 224.737 152.288 213.93 152.288 201.835C152.288 178.161 171.591 158.861 195.269 158.861C219.203 158.861 238.508 178.161 238.508 201.835Z" fill="#E9F0F8"/>
<path d="M238.508 201.833C238.508 214.443 233.103 225.507 224.609 233.485C216.887 240.69 206.593 245.064 195.269 245.064C186.261 245.064 177.768 242.235 170.818 237.344C159.494 229.624 152.288 216.759 152.288 202.09C152.288 178.416 171.591 159.116 195.269 159.116C218.947 159.116 238.508 178.159 238.508 201.833Z" fill="#F1F3F9"/>
<path d="M226.671 231.427C226.155 232.201 225.383 232.716 224.611 233.229C216.891 240.436 206.596 244.809 195.271 244.809C186.263 244.809 177.77 241.978 170.821 237.09C168.762 235.803 166.96 234.002 165.159 232.457C166.188 231.171 167.733 230.4 171.078 229.113L172.365 228.598C174.939 227.568 178.542 226.282 183.175 224.222C183.947 223.966 184.462 223.451 184.976 222.936C185.234 222.68 185.491 222.421 185.491 221.906C185.749 221.393 186.006 220.62 186.006 220.105V211.358C185.749 211.099 185.749 211.099 185.491 210.843C184.719 209.813 184.204 208.526 184.204 206.982L183.69 206.725C181.373 207.239 181.631 204.923 181.116 200.291C180.858 198.49 181.116 197.976 182.145 197.718L182.917 196.689C181.373 193.086 180.601 189.741 180.601 187.168C180.601 182.793 182.403 179.962 184.976 178.676C183.432 175.588 183.432 174.559 183.432 174.559C183.432 174.559 192.44 176.103 195.529 175.588C199.389 174.816 205.566 175.845 207.882 180.992C211.743 182.536 213.03 184.852 213.546 187.425C214.059 191.542 211.743 195.917 211.229 197.718V197.976C211.743 198.233 212.001 198.747 211.743 200.549C211.229 204.923 211.229 207.497 209.169 206.982L207.111 210.584C207.111 211.099 207.111 211.099 206.853 211.358C206.853 212.129 206.853 213.415 206.853 220.364C206.853 221.135 207.111 222.165 207.625 222.68C207.882 222.936 207.882 223.195 208.14 223.195C208.655 223.708 209.169 224.222 209.685 224.222C214.831 226.282 218.435 227.825 221.265 228.855C223.841 229.885 225.642 230.656 226.671 231.427Z" fill="white"/>
<path d="M226.669 231.427C226.153 232.2 225.381 232.715 224.611 233.228C216.889 240.435 206.594 244.809 195.269 244.809C186.261 244.809 177.768 241.978 170.819 237.089C168.76 235.803 166.959 234.001 165.157 232.457C166.186 231.17 167.731 230.399 171.076 229.111L172.363 228.598C174.937 227.568 178.54 226.282 183.173 224.222C183.945 223.965 184.46 223.45 184.974 222.936C187.548 226.538 191.666 228.854 196.556 228.854C201.189 228.854 205.307 226.538 207.881 223.192C208.395 223.707 208.911 224.222 209.424 224.222C214.573 226.282 218.175 227.824 221.007 228.854C223.839 229.884 225.64 230.655 226.669 231.427Z" fill="#D6DCE8"/>
<path d="M210.97 197.461C211.227 196.432 210.712 194.888 210.198 194.116C210.198 193.858 209.939 193.858 209.939 193.601C208.138 189.998 204.278 188.712 200.675 188.454C191.152 187.94 190.38 189.741 187.548 187.168C188.578 188.454 188.578 190.77 187.034 193.344C186.004 195.145 184.203 196.174 182.401 196.689C178.026 186.91 180.342 180.734 184.46 178.676C182.916 175.588 182.916 174.559 182.916 174.559C182.916 174.559 191.924 176.103 195.012 175.588C198.873 174.816 205.05 175.845 207.366 180.992C211.227 182.536 212.513 184.852 213.028 187.425C213.8 191.285 211.484 195.66 210.97 197.461Z" fill="#AAB2C5"/>
<path d="M186.261 220.105V211.355C186.004 211.099 186.004 211.099 185.746 210.842V210.327C186.261 211.099 186.776 211.87 187.548 212.385L194.497 217.274C196.041 218.562 198.358 218.562 199.902 217.274L206.336 211.613C206.593 211.355 206.851 211.355 207.108 211.099C207.108 211.87 207.108 213.156 207.108 220.105C207.108 220.62 207.108 220.876 207.365 221.391H186.261C186.004 220.876 186.261 220.62 186.261 220.105Z" fill="url(#paint2_linear_119_36)"/>
<path d="M83.9032 202.48C83.9032 214.574 78.7557 225.381 70.5199 233.101C68.2034 235.161 65.8871 236.962 63.0561 238.507C56.8792 242.109 49.6727 244.167 41.9516 244.167C34.2305 244.167 27.024 242.109 20.8471 238.507C19.8176 237.992 19.0455 237.477 18.016 236.706C7.20641 229.242 0 216.634 0 202.48C0 179.32 18.7881 160.793 41.6943 160.793C65.1151 160.535 83.9032 179.32 83.9032 202.48Z" fill="#F1F3F9"/>
<path d="M33.4587 211.743C33.9736 212.258 34.4882 213.03 35.2604 213.545C35.775 214.059 36.2899 214.316 36.8045 214.831C37.062 215.087 37.5767 215.346 37.834 215.602C37.834 215.602 38.0915 215.602 38.0915 215.861L38.3489 216.117V219.72C38.3489 219.72 38.3489 219.72 38.0915 219.463C37.834 219.205 37.3194 218.948 37.062 218.692C36.5472 218.433 36.0325 217.918 35.5177 217.662C35.2604 217.662 35.2604 217.403 35.0031 217.403C33.2014 216.376 31.6572 215.346 31.6572 214.059C31.9146 213.545 32.4292 212.773 33.4587 211.743ZM69.2615 231.646C67.7171 228.302 65.6302 225.123 62.0271 223.322C60.2254 222.551 58.1664 221.779 56.1074 221.779C55.5928 221.779 54.8206 221.779 54.3059 221.779C54.0484 221.779 53.7911 221.779 53.5338 221.779C50.7026 221.521 50.4453 221.006 50.4453 221.006V215.087C52.2469 213.545 54.0484 211.743 55.5928 209.942C56.8796 208.14 57.9091 206.082 58.4237 203.508C60.7402 202.994 62.2844 200.935 62.0271 198.362C62.0271 197.333 61.2549 196.303 61.2549 195.274C61.2549 194.759 61.2549 194.245 61.2549 193.73C61.2549 193.473 61.2549 192.958 61.2549 192.701C61.2549 192.443 61.2549 191.929 61.2549 191.671C60.9976 189.87 60.4827 188.069 59.4532 186.01C56.3649 180.349 50.7026 176.746 44.011 176.746C42.7242 176.746 41.4373 177.004 40.1503 177.261C37.834 177.776 35.5177 178.805 33.716 180.349C33.4587 180.606 32.9441 180.863 32.6867 181.378L32.4292 181.635C30.3702 183.694 28.5688 186.01 27.7966 188.841C26.7671 191.671 26.7671 194.502 27.0244 197.333C27.0244 197.333 27.0244 197.333 27.0244 197.59V197.847C27.0244 198.362 27.2819 198.362 27.0244 198.619C27.0244 198.876 26.7671 198.876 26.7671 199.134C26.2524 199.906 25.9949 200.935 26.5098 202.479C27.5393 205.052 29.0834 204.795 30.8851 206.082C30.8851 206.082 30.6277 206.082 30.6277 206.339L28.8261 206.854C20.5902 209.427 17.7591 216.376 21.3623 220.749C22.6491 222.294 24.7081 223.581 27.7966 224.352C27.0244 224.352 26.2524 224.867 25.7376 225.382C22.1345 228.213 19.8181 232.587 19.3033 236.704C19.3033 236.96 19.3033 237.219 19.3033 237.475C20.3328 237.99 21.105 238.762 22.1345 239.277L62.4365 238.336C65.0102 236.792 66.1488 235.599 68.4651 233.541C68.2078 232.255 69.5188 231.905 69.2615 231.646Z" fill="white"/>
<path d="M70.5201 233.101C68.2038 235.161 65.8875 236.962 63.0563 238.505C56.8793 242.107 49.6731 244.167 41.9518 244.167C34.2306 244.167 27.0242 242.107 20.8473 238.505C19.8179 237.99 19.0458 237.477 18.0163 236.703C18.0163 236.447 18.0163 236.189 18.0163 235.932C18.531 231.815 20.8474 227.441 24.4505 224.61C24.9654 224.095 25.7374 223.838 26.5095 223.58C23.421 223.065 21.3621 221.779 20.0752 219.978H29.8553C32.6865 223.838 37.0618 226.153 42.2093 226.153C46.5846 226.153 50.445 224.351 53.2762 221.522C53.5335 221.522 53.7909 221.522 54.0484 221.522C54.563 221.522 55.0779 221.522 55.8498 221.522C57.9088 221.522 59.9678 222.037 61.7695 223.065C65.3726 224.866 67.9465 227.956 69.7479 231.558C70.2628 232.071 70.2628 232.586 70.5201 233.101Z" fill="#D6DCE8"/>
<path d="M50.7033 215.089V220.493L34.4889 221.007L35.2608 217.405C35.5184 217.405 35.5184 217.661 35.7757 217.661C36.2903 217.92 36.8052 218.433 37.3198 218.691C37.5774 218.948 37.8347 219.206 38.3493 219.463C38.3493 219.463 38.6068 219.463 38.6068 219.721V216.119L38.3493 215.86C41.1805 217.405 45.0411 218.433 50.7033 215.089Z" fill="url(#paint3_linear_119_36)"/>
<path d="M61.2543 192.702C58.1658 193.731 54.5627 194.246 51.2168 193.989C45.812 193.474 40.6646 191.415 36.5466 187.813C35.2598 191.673 31.914 194.503 28.0533 196.305C27.5387 196.562 27.024 196.819 26.5092 196.819C26.5092 196.819 26.5092 196.819 26.5092 196.562C26.2518 193.731 26.2518 190.901 27.2813 188.07C28.0533 185.239 29.855 182.923 31.914 180.865L32.1713 180.607C32.4288 180.35 32.9435 180.093 33.2008 179.578C35.0024 178.034 37.3188 177.005 39.6351 176.49C40.9219 176.233 42.2089 175.976 43.4957 175.976C50.1874 175.976 56.107 179.578 58.938 185.239C59.9675 187.298 60.4823 189.357 60.7396 190.901C61.2543 191.93 61.2543 192.445 61.2543 192.702Z" fill="#AAB2C5"/>
<path d="M40.665 230.788C39.1206 232.589 36.547 232.589 34.2307 232.589C36.547 230.273 35.2602 222.809 27.0242 223.581C15.6999 221.523 16.7294 209.686 28.0537 206.083L29.8554 205.568L30.1127 205.826C30.8849 208.142 32.1717 210.201 33.4585 211.744C28.8259 215.605 35.2602 216.634 38.3487 219.722C40.9223 221.265 43.2386 227.698 40.665 230.788Z" fill="#AAB2C5"/>
<defs>
<linearGradient id="paint0_linear_119_36" x1="82.3394" y1="140.146" x2="155.007" y2="140.146" gradientUnits="userSpaceOnUse">
<stop stop-color="#B0BACC"/>
<stop offset="1" stop-color="#969EAE"/>
</linearGradient>
<linearGradient id="paint1_linear_119_36" x1="119.436" y1="62.1864" x2="119.436" y2="56.3904" gradientUnits="userSpaceOnUse">
<stop stop-color="white"/>
<stop offset="0.9913" stop-color="#D6DEEA"/>
</linearGradient>
<linearGradient id="paint2_linear_119_36" x1="196.514" y1="221.047" x2="196.514" y2="215.251" gradientUnits="userSpaceOnUse">
<stop stop-color="white"/>
<stop offset="0.9913" stop-color="#D6DEEA"/>
</linearGradient>
<linearGradient id="paint3_linear_119_36" x1="42.5648" y1="220.822" x2="42.5648" y2="217.722" gradientUnits="userSpaceOnUse">
<stop stop-color="white"/>
<stop offset="0.9913" stop-color="#D6DEEA"/>
</linearGradient>
</defs>
</svg>
